<svg xmlns="http://www.w3.org/2000/svg" viewBox="0 0 512 512">
  <defs>
    <linearGradient id="grad1" x1="0%" y1="0%" x2="100%" y2="100%">
      <stop offset="0%" stop-color="#0ea5e9" />
      <stop offset="100%" stop-color="#6366f1" />
    </linearGradient>
  </defs>
  <rect width="512" height="512" rx="128" fill="url(#grad1)" />
  <path d="M140 266c0-78 54-130 126-130 48 0 82 24 103 60l-60 36c-11-18-25-28-43-28-29 0-50 23-50 62s21 62 50 62c18 0 32-10 43-28l60 36c-21 36-55 60-103 60-72 0-126-52-126-130z" fill="#f8fafc" />
  <path d="M268 180h104v48h-104z" fill="#facc15" />
</svg>
